<svg width="16" height="16" viewBox="0 0 16 16" fill="none" xmlns="http://www.w3.org/2000/svg">
<path d="M5.08649 11.252C4.80751 10.9973 4.46788 10.4878 5.34121 10.4878H6.83314L7.90091 7.3584C7.18076 5.22872 6.54604 3.36239 6.3237 2.73706C6.17751 2.32589 6.00837 2.11906 5.8361 2.04568C5.4595 1.88526 5.0501 2.15484 4.86816 2.73706L1.06029 14.1267C0.84617 14.7671 1.25356 14.9757 1.48402 15H4.68621C5.1811 15 5.40186 14.7089 5.45037 14.5633L6.22321 12.3072C5.78835 11.9052 5.38838 11.5335 5.08649 11.252Z" fill="#C0C4C6"/>
<path d="M10.1445 14.0175C10.2779 14.4057 10.2901 15 9.19839 15H14.0745C14.8896 15 14.8507 14.4178 14.7295 14.1267C13.5165 10.5363 11.0397 3.21011 10.8359 2.62789C10.6321 2.04568 10.3992 2.04567 10.1445 2.04568H5.8361C6.00837 2.11906 6.17751 2.32589 6.3237 2.73706C6.54604 3.36239 7.18076 5.22872 7.90091 7.3584C8.24534 8.37696 8.6093 9.45575 8.95705 10.4878C9.40538 11.8184 9.82675 13.0714 10.1445 14.0175Z" fill="white"/>
<path d="M9.19839 15C10.2901 15 10.2779 14.4057 10.1445 14.0175C9.82675 13.0714 9.40538 11.8184 8.95705 10.4878H6.83314H5.34121C4.46788 10.4878 4.80751 10.9973 5.08649 11.252C5.38838 11.5335 5.78835 11.9052 6.22321 12.3072C7.34339 13.343 8.69511 14.5806 9.19839 15Z" fill="#C0C4C6"/>
<path d="M9.19839 15C10.2901 15 10.2779 14.4057 10.1445 14.0175C9.82674 13.0714 9.40538 11.8184 8.95705 10.4878M9.19839 15C10.4841 15 13.2594 15 14.0745 15M9.19839 15C8.69511 14.5806 7.34339 13.343 6.22321 12.3072M9.19839 15H14.0745M5.34121 10.4878C4.46788 10.4878 4.80751 10.9973 5.08649 11.252C5.38838 11.5335 5.78835 11.9052 6.22321 12.3072M5.34121 10.4878C5.70849 10.4878 6.25756 10.4878 6.83314 10.4878M5.34121 10.4878H6.83314M8.95705 10.4878C8.6093 9.45575 8.24534 8.37696 7.90091 7.3584M8.95705 10.4878C8.46951 10.4878 7.62616 10.4878 6.83314 10.4878M8.95705 10.4878H6.83314M5.8361 2.04568C5.4595 1.88526 5.0501 2.15484 4.86816 2.73706L1.06029 14.1267C0.84617 14.7671 1.25356 14.9757 1.48402 15M5.8361 2.04568C6.00837 2.11906 6.17751 2.32589 6.3237 2.73706C6.54604 3.36239 7.18076 5.22872 7.90091 7.3584M5.8361 2.04568H10.1445C10.3992 2.04567 10.6321 2.04568 10.8359 2.62789C11.0397 3.21011 13.5165 10.5363 14.7295 14.1267C14.8507 14.4178 14.8896 15 14.0745 15M7.90091 7.3584L6.83314 10.4878M6.22321 12.3072L5.45037 14.5633C5.40186 14.7089 5.1811 15 4.68621 15M4.68621 15C4.19133 15 2.34522 15 1.48402 15M4.68621 15H1.48402" stroke="#201E1E"/>
</svg>
