<svg width="16" height="16" viewBox="0 0 16 16" fill="none" xmlns="http://www.w3.org/2000/svg">
<g clip-path="url(#clip0_1895_2457)">
<rect width="9" height="9" transform="translate(7 7)" fill="white"/>
<path d="M10.7104 9.70703L9.50732 14H8.63916L10.2183 9.02344H10.7583L10.7104 9.70703ZM11.6709 14L10.4644 9.70703L10.4062 9.02344H10.9565L12.5425 14H11.6709ZM11.6914 12.1509V12.8481H9.37402V12.1509H11.6914ZM13.9746 9.02344V14H13.144V9.02344H13.9746Z" fill="#201E1E"/>
<rect x="7" y="9" width="1" height="7" fill="black"/>
<rect x="15" y="8" width="1" height="7.99998" fill="black"/>
<rect x="7" y="16" width="1" height="9" transform="rotate(-90 7 16)" fill="black"/>
<rect x="9.00104" y="8" width="1" height="6.99896" transform="rotate(-90 9.00104 8)" fill="black"/>
<ellipse cx="3" cy="5.5" rx="2" ry="2.5" fill="white"/>
<path d="M4.07227 7.65234V0H5.63086V9H4.22461L4.07227 7.65234ZM0 5.90625V5.7832C0 5.29883 0.0546875 4.85938 0.164062 4.46484C0.277344 4.06641 0.441406 3.72461 0.65625 3.43945C0.871094 3.1543 1.13086 2.93359 1.43555 2.77734C1.74414 2.62109 2.09375 2.54297 2.48438 2.54297C2.86328 2.54297 3.19336 2.61914 3.47461 2.77148C3.75977 2.92383 4.00195 3.14062 4.20117 3.42188C4.4043 3.70312 4.56641 4.03711 4.6875 4.42383C4.80859 4.80664 4.89648 5.22852 4.95117 5.68945V6.02344C4.89648 6.47266 4.80859 6.88477 4.6875 7.25977C4.56641 7.63477 4.4043 7.96289 4.20117 8.24414C4.00195 8.52148 3.75977 8.73633 3.47461 8.88867C3.18945 9.04102 2.85547 9.11719 2.47266 9.11719C2.08594 9.11719 1.73828 9.03711 1.42969 8.87695C1.125 8.7168 0.865234 8.49219 0.650391 8.20312C0.439453 7.91406 0.277344 7.57422 0.164062 7.18359C0.0546875 6.79297 0 6.36719 0 5.90625ZM1.55273 5.7832V5.90625C1.55273 6.17969 1.57617 6.43555 1.62305 6.67383C1.66992 6.91211 1.74609 7.12305 1.85156 7.30664C1.95703 7.48633 2.0918 7.62695 2.25586 7.72852C2.42383 7.83008 2.62695 7.88086 2.86523 7.88086C3.16992 7.88086 3.41992 7.81445 3.61523 7.68164C3.81445 7.54492 3.96875 7.35938 4.07812 7.125C4.1875 6.88672 4.25781 6.61914 4.28906 6.32227V5.40234C4.27344 5.16797 4.23242 4.95117 4.16602 4.75195C4.10352 4.55273 4.01367 4.38086 3.89648 4.23633C3.7832 4.0918 3.64258 3.97852 3.47461 3.89648C3.30664 3.81445 3.10742 3.77344 2.87695 3.77344C2.63867 3.77344 2.43555 3.82617 2.26758 3.93164C2.09961 4.0332 1.96289 4.17578 1.85742 4.35938C1.75195 4.54297 1.67383 4.75586 1.62305 4.99805C1.57617 5.24023 1.55273 5.50195 1.55273 5.7832Z" fill="black"/>
</g>
<defs>
<clipPath id="clip0_1895_2457">
<rect width="16" height="16" fill="white"/>
</clipPath>
</defs>
</svg>
