<svg width="16" height="16" viewBox="0 0 16 16" fill="none" xmlns="http://www.w3.org/2000/svg">
<g clip-path="url(#clip0_1816_2285)">
<path d="M12.6973 0.957153H3.55128V15.9999H14.8566V2.71487H12.6973V0.957153Z" fill="white"/>
<path d="M9.71132 12.534V5.67358H10.8547V12.534H9.71132Z" fill="#3E3A39"/>
<path d="M13.1415 5.67362V6.81702L7.42454 6.81702V5.67362L13.1415 5.67362Z" fill="#3E3A39"/>
<path d="M6.85283 5.67366V7.96045H7.99622V5.67366H6.85283Z" fill="#3E3A39"/>
<path d="M12.5698 5.67366V7.96045H13.7132V5.67366H12.5698Z" fill="#3E3A39"/>
<path d="M8.56792 11.3907V12.5341H11.9981V11.3907H8.56792Z" fill="#3E3A39"/>
<path d="M12.4555 -0.00756836H3.53699V7.9962H4.68039V0.992902H11.8838V3.69417H14.8566V14.9995H9.7685V16H16V3.19394L12.4555 -0.00756836Z" fill="#3E3A39"/>
<path d="M7.75 13.5572L1.66892 10.9086" stroke="black" stroke-miterlimit="10" stroke-linejoin="round"/>
<path d="M0.993248 9.9624C0.993248 10.5147 1.44096 10.9624 1.99325 10.9624C2.54553 10.9624 2.99325 10.5147 2.99325 9.9624C2.99325 9.41012 2.54553 8.9624 1.99325 8.9624C1.44096 8.9624 0.993248 9.41012 0.993248 9.9624Z" stroke="black" stroke-miterlimit="10" stroke-linejoin="round"/>
<path d="M7.75 10.3678L1.66892 13.0164" stroke="black" stroke-miterlimit="10" stroke-linejoin="round"/>
<path d="M0.993248 13.9622C0.993248 14.5144 1.44096 14.9622 1.99325 14.9622C2.54553 14.9622 2.99325 14.5144 2.99325 13.9622C2.99325 13.4099 2.54553 12.9622 1.99325 12.9622C1.44096 12.9622 0.993248 13.4099 0.993248 13.9622Z" stroke="black" stroke-miterlimit="10" stroke-linejoin="round"/>
</g>
<defs>
<clipPath id="clip0_1816_2285">
<rect width="16" height="16" fill="white"/>
</clipPath>
</defs>
</svg>
